<svg width="22" height="22" viewBox="0 0 22 22" fill="none" xmlns="http://www.w3.org/2000/svg">
<mask id="mask0_3659_2877" style="mask-type:luminance" maskUnits="userSpaceOnUse" x="0" y="0" width="22" height="22">
<rect width="22" height="22" fill="white"/>
</mask>
<g mask="url(#mask0_3659_2877)">
<path fill-rule="evenodd" clip-rule="evenodd" d="M19.0141 11.9581C18.3935 12.1231 17.7528 12.2065 17.1102 12.2065C15.1531 12.2065 13.3152 11.4457 11.9347 10.0652C10.094 8.22452 9.36896 5.5121 10.0427 2.98577C10.127 2.66952 10.0363 2.33219 9.80529 2.10119C9.57429 1.87019 9.23788 1.77669 8.91979 1.86469C7.35962 2.28177 5.93696 3.10035 4.80488 4.23152C1.23171 7.80469 1.23171 13.6209 4.80488 17.1959C6.53646 18.9275 8.83912 19.8818 11.2875 19.8818C13.736 19.8818 16.0377 18.9284 17.7684 17.1969C18.9014 16.0629 19.7209 14.6384 20.1361 13.0801C20.2205 12.7639 20.1288 12.4265 19.8978 12.1955C19.6668 11.9636 19.3285 11.8719 19.0141 11.9581ZM16.4733 15.9007C15.0882 17.2858 13.2466 18.0484 11.2886 18.0484C9.32971 18.0484 7.48812 17.2849 6.10212 15.8998C3.24395 13.0407 3.24395 8.38769 6.10212 5.52861C6.65395 4.97677 7.29195 4.51844 7.99046 4.16919C7.78696 6.81377 8.73662 9.46019 10.6396 11.3632C12.5353 13.2598 15.156 14.2232 17.8336 14.0133C17.4835 14.709 17.0242 15.3479 16.4733 15.9007Z" fill="#495057"/>
</g>
</svg>
