<svg width="30" height="30" viewBox="0 0 30 30" fill="none" xmlns="http://www.w3.org/2000/svg">
<path d="M6.25 27.5C5.5625 27.5 4.97417 27.2554 4.485 26.7663C3.99583 26.2771 3.75083 25.6883 3.75 25V7.5C3.75 6.8125 3.995 6.22417 4.485 5.735C4.975 5.24583 5.56333 5.00083 6.25 5H7.5V2.5H10V5H20V2.5H22.5V5H23.75C24.4375 5 25.0263 5.245 25.5163 5.735C26.0063 6.225 26.2508 6.81333 26.25 7.5V25C26.25 25.6875 26.0054 26.2763 25.5163 26.7663C25.0271 27.2563 24.4383 27.5008 23.75 27.5H6.25ZM11.25 25H13.125V22.4062C13.125 22.2812 13.0521 22.0833 12.9062 21.8125L10.4062 18.875C10.2604 18.7083 10.1562 18.5312 10.0938 18.3438C10.0312 18.1562 10 17.9688 10 17.7812C10.2292 17.8854 10.4633 17.9688 10.7025 18.0312C10.9417 18.0938 11.1867 18.125 11.4375 18.125C11.8542 18.125 12.2658 18.0362 12.6725 17.8587C13.0792 17.6812 13.4383 17.4263 13.75 17.0938C13.9167 16.9271 14.1096 16.8021 14.3288 16.7188C14.5479 16.6354 14.7717 16.5937 15 16.5938C15.25 16.5938 15.4846 16.6354 15.7037 16.7188C15.9229 16.8021 16.105 16.9271 16.25 17.0938C16.5625 17.4271 16.9271 17.6825 17.3438 17.86C17.7604 18.0375 18.1771 18.1258 18.5938 18.125C18.8438 18.125 19.0833 18.0938 19.3125 18.0312C19.5417 17.9688 19.7708 17.8854 20 17.7812C20 17.9688 19.9688 18.1562 19.9062 18.3438C19.8438 18.5312 19.7396 18.7083 19.5938 18.875L17.0938 21.8125C17.0312 21.9167 16.9792 22.0158 16.9375 22.11C16.8958 22.2042 16.875 22.3029 16.875 22.4062V25H18.75V22.75L21 20.125C21.2292 19.8958 21.4325 19.5833 21.61 19.1875C21.7875 18.7917 21.8758 18.3333 21.875 17.8125C21.875 17.5417 21.8438 17.2762 21.7812 17.0162C21.7187 16.7562 21.625 16.5008 21.5 16.25C21.6042 16.0208 21.6929 15.7762 21.7663 15.5163C21.8396 15.2563 21.8758 14.9904 21.875 14.7188C21.875 14.3021 21.8075 13.9012 21.6725 13.5162C21.5375 13.1312 21.3238 12.7717 21.0312 12.4375L18.75 9.75V7.5H16.875V10.0938C16.875 10.1979 16.8908 10.3021 16.9225 10.4062C16.9542 10.5104 17.0113 10.6042 17.0938 10.6875L19.5938 13.6562C19.7188 13.8229 19.8175 13.995 19.89 14.1725C19.9625 14.35 19.9992 14.5321 20 14.7188C20 15.1146 19.87 15.4637 19.61 15.7662C19.35 16.0687 19.0112 16.2196 18.5938 16.2188C18.4271 16.2188 18.255 16.1875 18.0775 16.125C17.9 16.0625 17.7387 15.9583 17.5938 15.8125C17.2396 15.4583 16.8387 15.1875 16.3912 15C15.9437 14.8125 15.48 14.7187 15 14.7188C14.52 14.7188 14.0567 14.8125 13.61 15C13.1633 15.1875 12.7621 15.4583 12.4062 15.8125C12.2812 15.9583 12.1354 16.0625 11.9688 16.125C11.8021 16.1875 11.625 16.2188 11.4375 16.2188C11.0208 16.2188 10.6771 16.0675 10.4062 15.765C10.1354 15.4625 10 15.1033 10 14.6875C10 14.5 10.0312 14.3179 10.0938 14.1412C10.1562 13.9646 10.2604 13.7925 10.4062 13.625L12.9062 10.6875C12.9688 10.5833 13.0208 10.4842 13.0625 10.39C13.1042 10.2958 13.125 10.1971 13.125 10.0938V7.5H11.25V9.75L9 12.375C8.77083 12.6042 8.5675 12.9167 8.39 13.3125C8.2125 13.7083 8.12417 14.1667 8.125 14.6875C8.125 14.9792 8.15625 15.255 8.21875 15.515C8.28125 15.775 8.36458 16.02 8.46875 16.25C8.34375 16.5 8.255 16.755 8.2025 17.015C8.15 17.275 8.12417 17.5408 8.125 17.8125C8.125 18.3333 8.21375 18.7917 8.39125 19.1875C8.56875 19.5833 8.77167 19.8958 9 20.125L11.25 22.75V25Z" fill="#057088"/>
</svg>
