<svg width="28" height="30" viewBox="0 0 28 30" fill="none" xmlns="http://www.w3.org/2000/svg">
<path d="M27.0164 23.5687L17.7502 8.12813V1.875H18.6877C19.2033 1.875 19.6252 1.45312 19.6252 0.9375C19.6252 0.421875 19.2033 0 18.6877 0H9.31266C8.79703 0 8.37516 0.421875 8.37516 0.9375C8.37516 1.45312 8.79703 1.875 9.31266 1.875H10.2502V8.12813L0.983909 23.5687C-1.13859 27.105 0.50016 30 4.62516 30H23.3752C27.5002 30 29.1389 27.1069 27.0164 23.5687ZM6.06141 18.75L12.1252 8.64375V1.875H15.8752V8.64375L21.9389 18.75H6.06141Z" fill="#057088"/>
</svg>
