<svg width="10" height="11" viewBox="0 0 10 11" fill="none" xmlns="http://www.w3.org/2000/svg">
<path d="M9.375 8.30078C8.82773 8.30078 8.76445 7.67578 7.91992 7.67578C7.07168 7.67578 7.00537 8.30078 6.45996 8.30078C5.91904 8.30078 5.84562 7.67578 5 7.67578C4.16324 7.67578 4.07777 8.30078 3.54492 8.30078C2.99516 8.30078 2.93551 7.67578 2.08496 7.67578C1.23443 7.67578 1.17377 8.30078 0.625 8.30078V6.73828C0.625 6.2207 1.04492 5.80078 1.5625 5.80078H1.875V2.98828H3.125V5.80078H4.375V2.98828H5.625V5.80078H6.875V2.98828H8.125V5.80078H8.4375C8.95508 5.80078 9.375 6.2207 9.375 6.73828V8.30078ZM9.375 10.8008H0.625V8.92578C1.4718 8.92578 1.53842 8.30078 2.08496 8.30078C2.63088 8.30078 2.69537 8.92578 3.54492 8.92578C4.3817 8.92578 4.46713 8.30078 5 8.30078C5.54977 8.30078 5.60939 8.92578 6.45996 8.92578C7.30678 8.92578 7.37338 8.30078 7.91992 8.30078C8.4568 8.30078 8.53031 8.92578 9.375 8.92578V10.8008ZM2.5 2.67578C2.15332 2.67578 1.875 2.39746 1.875 2.05078C1.875 1.44531 2.5 1.60156 2.5 0.800781C2.73438 0.800781 3.125 1.37695 3.125 1.89453C3.125 2.41211 2.84668 2.67578 2.5 2.67578ZM5 2.67578C4.65332 2.67578 4.375 2.39746 4.375 2.05078C4.375 1.44531 5 1.60156 5 0.800781C5.23438 0.800781 5.625 1.37695 5.625 1.89453C5.625 2.41211 5.34668 2.67578 5 2.67578ZM7.5 2.67578C7.15332 2.67578 6.875 2.39746 6.875 2.05078C6.875 1.44531 7.5 1.60156 7.5 0.800781C7.73438 0.800781 8.125 1.37695 8.125 1.89453C8.125 2.41211 7.84668 2.67578 7.5 2.67578Z" fill="white"/>
</svg>
