<svg width="14" height="16" viewBox="0 0 14 16" fill="none" xmlns="http://www.w3.org/2000/svg">
<path fill-rule="evenodd" clip-rule="evenodd" d="M7.77197 14.1482C4.33169 14.1482 1.54297 11.2049 1.54297 7.57408C1.54297 3.94321 4.33169 1 7.77197 1C11.2123 1 14.001 3.94321 14.001 7.57408C14.001 11.2049 11.2123 14.1482 7.77197 14.1482ZM7.77166 12.8311C10.5238 12.8311 12.7549 10.4764 12.7549 7.57183C12.7549 4.66722 10.5238 2.31257 7.77168 2.31255C5.01954 2.31254 2.78848 4.66718 2.78847 7.57178C2.78845 10.4764 5.01949 12.831 7.77163 12.8311H7.77166ZM4.65732 7.57527H5.90312C5.90312 8.66462 6.73977 9.54771 7.77182 9.54771C8.80387 9.54771 9.64052 8.66463 9.64053 7.57528L10.8863 7.57527C10.8863 8.74974 10.2927 9.835 9.32908 10.4222C8.36545 11.0095 7.1782 11.0095 6.21457 10.4222C5.25094 9.835 4.65732 8.74974 4.65732 7.57527Z" fill="white"/>
</svg>
