<svg width="9" height="12" viewBox="0 0 9 12" fill="none" xmlns="http://www.w3.org/2000/svg">
<path d="M2.625 9.58125H6.375C6.46375 9.58125 6.53813 9.55167 6.59813 9.4925C6.65813 9.43333 6.68792 9.35896 6.6875 9.26938C6.68708 9.17979 6.65729 9.10542 6.59813 9.04625C6.53813 8.98667 6.46375 8.95688 6.375 8.95688H2.625C2.53625 8.95688 2.46187 8.98667 2.40187 9.04625C2.34187 9.10583 2.31208 9.18021 2.3125 9.26938C2.31292 9.35854 2.34271 9.43271 2.40187 9.49187C2.46187 9.55188 2.53625 9.58188 2.625 9.58188M2.625 7.94687H6.375C6.46375 7.94687 6.53813 7.91708 6.59813 7.8575C6.65813 7.79792 6.68792 7.72354 6.6875 7.63437C6.68708 7.54521 6.65729 7.47104 6.59813 7.41187C6.53813 7.35187 6.46375 7.32187 6.375 7.32187H2.625C2.53625 7.32187 2.46187 7.35187 2.40187 7.41187C2.34187 7.47187 2.31208 7.54604 2.3125 7.63437C2.31292 7.72271 2.34271 7.79708 2.40187 7.8575C2.46187 7.91708 2.53625 7.94687 2.625 7.94687ZM4.5 3.11062C4.335 2.90646 4.17688 2.73979 4.02563 2.61063C3.87438 2.48146 3.6575 2.4175 3.375 2.41875C3.08 2.41875 2.82917 2.52208 2.6225 2.72875C2.41583 2.93542 2.3125 3.18625 2.3125 3.48125C2.3125 3.99375 2.53562 4.44521 2.98187 4.83563C3.42813 5.22604 3.82167 5.57604 4.1625 5.88563C4.25292 5.97604 4.36542 6.02125 4.5 6.02125C4.63458 6.02125 4.74708 5.97583 4.8375 5.885L6.01813 4.84125C6.46396 4.44667 6.68708 3.99333 6.6875 3.48125C6.6875 3.18667 6.58417 2.93583 6.3775 2.72875C6.17083 2.52167 5.92 2.41833 5.625 2.41875C5.34208 2.41875 5.12521 2.48312 4.97437 2.61188C4.82354 2.74062 4.66542 2.90687 4.5 3.11062ZM7.86563 11.625H1.13437C0.846875 11.625 0.606875 11.5288 0.414375 11.3363C0.221875 11.1438 0.125417 10.9035 0.125 10.6156V1.38437C0.125 1.09687 0.221458 0.856875 0.414375 0.664375C0.607292 0.471875 0.847292 0.375417 1.13437 0.375H7.86563C8.15312 0.375 8.39313 0.471458 8.58563 0.664375C8.77813 0.857292 8.87458 1.09729 8.875 1.38437V10.6156C8.875 10.9031 8.77875 11.1431 8.58625 11.3356C8.39375 11.5281 8.15354 11.6246 7.86563 11.625Z" fill="#034A5A"/>
</svg>
