<svg width="12" height="12" viewBox="0 0 12 12" fill="none" xmlns="http://www.w3.org/2000/svg">
<path fill-rule="evenodd" clip-rule="evenodd" d="M1.19922 2.85039C1.19922 2.73104 1.24663 2.61658 1.33102 2.53219C1.41541 2.4478 1.52987 2.40039 1.64922 2.40039H10.3492C10.4686 2.40039 10.583 2.4478 10.6674 2.53219C10.7518 2.61658 10.7992 2.73104 10.7992 2.85039C10.7992 2.96974 10.7518 3.0842 10.6674 3.16859C10.583 3.25298 10.4686 3.30039 10.3492 3.30039H1.64922C1.52987 3.30039 1.41541 3.25298 1.33102 3.16859C1.24663 3.0842 1.19922 2.96974 1.19922 2.85039ZM1.19922 6.00039C1.19922 5.88104 1.24663 5.76658 1.33102 5.68219C1.41541 5.5978 1.52987 5.55039 1.64922 5.55039H10.3492C10.4686 5.55039 10.583 5.5978 10.6674 5.68219C10.7518 5.76658 10.7992 5.88104 10.7992 6.00039C10.7992 6.11974 10.7518 6.2342 10.6674 6.31859C10.583 6.40298 10.4686 6.45039 10.3492 6.45039H1.64922C1.52987 6.45039 1.41541 6.40298 1.33102 6.31859C1.24663 6.2342 1.19922 6.11974 1.19922 6.00039ZM1.19922 9.15039C1.19922 9.03104 1.24663 8.91658 1.33102 8.83219C1.41541 8.7478 1.52987 8.70039 1.64922 8.70039H10.3492C10.4686 8.70039 10.583 8.7478 10.6674 8.83219C10.7518 8.91658 10.7992 9.03104 10.7992 9.15039C10.7992 9.26974 10.7518 9.3842 10.6674 9.46859C10.583 9.55298 10.4686 9.60039 10.3492 9.60039H1.64922C1.52987 9.60039 1.41541 9.55298 1.33102 9.46859C1.24663 9.3842 1.19922 9.26974 1.19922 9.15039Z" fill="#111111"/>
</svg>
