<svg width="18" height="19" viewBox="0 0 18 19" fill="none" xmlns="http://www.w3.org/2000/svg">
<path d="M17.5153 7.72684L10.0153 0.650593C10.0116 0.647394 10.0082 0.643949 10.005 0.640281C9.72887 0.389155 9.36903 0.25 8.99578 0.25C8.62253 0.25 8.2627 0.389155 7.98656 0.640281L7.97625 0.650593L0.484687 7.72684C0.331873 7.86736 0.209891 8.03807 0.126461 8.22817C0.0430305 8.41827 -3.15402e-05 8.62362 1.73323e-08 8.83122V17.4984C1.73323e-08 17.8962 0.158035 18.2778 0.43934 18.5591C0.720644 18.8404 1.10218 18.9984 1.5 18.9984H6C6.39782 18.9984 6.77936 18.8404 7.06066 18.5591C7.34196 18.2778 7.5 17.8962 7.5 17.4984V12.9984H10.5V17.4984C10.5 17.8962 10.658 18.2778 10.9393 18.5591C11.2206 18.8404 11.6022 18.9984 12 18.9984H16.5C16.8978 18.9984 17.2794 18.8404 17.5607 18.5591C17.842 18.2778 18 17.8962 18 17.4984V8.83122C18 8.62362 17.957 8.41827 17.8735 8.22817C17.7901 8.03807 17.6681 7.86736 17.5153 7.72684ZM16.5 17.4984H12V12.9984C12 12.6006 11.842 12.2191 11.5607 11.9377C11.2794 11.6564 10.8978 11.4984 10.5 11.4984H7.5C7.10218 11.4984 6.72064 11.6564 6.43934 11.9377C6.15804 12.2191 6 12.6006 6 12.9984V17.4984H1.5V8.83122L1.51031 8.82184L9 1.74841L16.4906 8.81997L16.5009 8.82934L16.5 17.4984Z" fill="white"/>
</svg>
