<svg width="11" height="15" viewBox="0 0 11 15" fill="none" xmlns="http://www.w3.org/2000/svg">
<path d="M5.50001 0.9375C4.13298 0.939113 2.8224 1.48288 1.85577 2.44951C0.889132 3.41615 0.345368 4.72672 0.343755 6.09375C0.342118 7.21089 0.707028 8.29771 1.38251 9.1875C1.38251 9.1875 1.52313 9.37266 1.5461 9.39937L5.50001 14.0625L9.45579 9.39703C9.47641 9.37219 9.61751 9.1875 9.61751 9.1875L9.61797 9.18609C10.2931 8.29669 10.6579 7.21037 10.6563 6.09375C10.6546 4.72672 10.1109 3.41615 9.14424 2.44951C8.17761 1.48288 6.86703 0.939113 5.50001 0.9375ZM5.50001 7.96875C5.12917 7.96875 4.76665 7.85878 4.45831 7.65276C4.14997 7.44673 3.90965 7.15389 3.76773 6.81128C3.62582 6.46867 3.58869 6.09167 3.66103 5.72796C3.73338 5.36424 3.91196 5.03015 4.17418 4.76792C4.4364 4.5057 4.7705 4.32712 5.13421 4.25478C5.49793 4.18243 5.87493 4.21956 6.21754 4.36148C6.56015 4.50339 6.85298 4.74371 7.05901 5.05206C7.26504 5.3604 7.37501 5.72291 7.37501 6.09375C7.37439 6.59084 7.17664 7.06739 6.82515 7.41889C6.47365 7.77039 5.9971 7.96813 5.50001 7.96875Z" fill="#EF4444"/>
</svg>
