<svg width="21" height="20" viewBox="0 0 21 20" fill="none" xmlns="http://www.w3.org/2000/svg">
<g clip-path="url(#clip0_2918_62)">
<path d="M18.1763 17.0595L14.2645 13.1485C15.3983 11.7874 15.9637 10.0415 15.843 8.27409C15.7223 6.5067 14.9249 4.85387 13.6167 3.65943C12.3084 2.46499 10.59 1.8209 8.81899 1.86115C7.04795 1.9014 5.3606 2.62289 4.10796 3.87554C2.85532 5.12818 2.13383 6.81553 2.09358 8.58657C2.05333 10.3576 2.69741 12.076 3.89186 13.3843C5.0863 14.6925 6.73913 15.4899 8.50651 15.6106C10.2739 15.7312 12.0198 15.1659 13.3809 14.0321L17.2919 17.9438C17.3499 18.0019 17.4189 18.048 17.4948 18.0794C17.5706 18.1108 17.6519 18.127 17.7341 18.127C17.8162 18.127 17.8975 18.1108 17.9734 18.0794C18.0492 18.048 18.1182 18.0019 18.1763 17.9438C18.2343 17.8858 18.2804 17.8168 18.3118 17.741C18.3432 17.6651 18.3594 17.5838 18.3594 17.5016C18.3594 17.4195 18.3432 17.3382 18.3118 17.2623C18.2804 17.1865 18.2343 17.1175 18.1763 17.0595ZM3.35906 8.75164C3.35906 7.63912 3.68897 6.55159 4.30705 5.62656C4.92513 4.70153 5.80364 3.98056 6.83147 3.55482C7.8593 3.12908 8.9903 3.01768 10.0814 3.23473C11.1726 3.45177 12.1749 3.9875 12.9615 4.77417C13.7482 5.56084 14.2839 6.56312 14.501 7.65426C14.718 8.7454 14.6066 9.8764 14.1809 10.9042C13.7551 11.9321 13.0342 12.8106 12.1091 13.4287C11.1841 14.0467 10.0966 14.3766 8.98407 14.3766C7.49273 14.375 6.06295 13.7818 5.00842 12.7273C3.95388 11.6728 3.36072 10.243 3.35906 8.75164Z" fill="#484848"/>
</g>
<defs>
<clipPath id="clip0_2918_62">
<rect width="20" height="20" fill="white" transform="translate(0.234375)"/>
</clipPath>
</defs>
</svg>
