<svg width="9" height="20" viewBox="0 0 9 20" fill="none" xmlns="http://www.w3.org/2000/svg">
<path d="M4.5 0C6.15684 0 7.5 1.1193 7.5 2.5C7.5 3.8807 6.15684 5 4.5 5C2.84316 5 1.5 3.8807 1.5 2.5C1.5 1.1193 2.84316 0 4.5 0ZM6.75 5.625H6.2175C5.15292 6.03293 3.89297 6.05055 2.7825 5.625H2.25C1.00734 5.625 0 6.46445 0 7.5V12.8125C0 13.3303 0.503672 13.75 1.125 13.75H1.875V19.0625C1.875 19.5803 2.37867 20 3 20H6C6.62133 20 7.125 19.5803 7.125 19.0625V13.75H7.875C8.49633 13.75 9 13.3303 9 12.8125V7.5C9 6.46445 7.99266 5.625 6.75 5.625Z" fill="white"/>
</svg>
