<svg width="23" height="21" viewBox="0 0 23 21" fill="none" xmlns="http://www.w3.org/2000/svg">
<mask id="mask0_2918_73" style="mask-type:luminance" maskUnits="userSpaceOnUse" x="0" y="-1" width="23" height="23">
<rect x="0.728516" y="-0.726562" width="22" height="22" fill="white"/>
</mask>
<g mask="url(#mask0_2918_73)">
<path fill-rule="evenodd" clip-rule="evenodd" d="M19.7426 11.2315C19.1221 11.3965 18.4813 11.48 17.8387 11.48C15.8816 11.48 14.0437 10.7191 12.6632 9.33862C10.8226 7.49796 10.0975 4.78554 10.7712 2.25921C10.8556 1.94296 10.7648 1.60562 10.5338 1.37462C10.3028 1.14363 9.96639 1.05013 9.64831 1.13812C8.08814 1.55521 6.66547 2.37379 5.53339 3.50496C1.96022 7.07812 1.96022 12.8944 5.53339 16.4694C7.26497 18.201 9.56764 19.1552 12.0161 19.1552C14.4645 19.1552 16.7662 18.2019 18.4969 16.4703C19.6299 15.3364 20.4494 13.9119 20.8646 12.3535C20.949 12.0373 20.8573 11.7 20.6263 11.469C20.3953 11.237 20.0571 11.1454 19.7426 11.2315ZM17.2018 15.1741C15.8167 16.5592 13.9751 17.3219 12.0171 17.3219C10.0582 17.3219 8.21664 16.5583 6.83064 15.1732C3.97247 12.3141 3.97247 7.66113 6.83064 4.80204C7.38247 4.25021 8.02047 3.79188 8.71897 3.44263C8.51547 6.08721 9.46514 8.73363 11.3681 10.6366C13.2638 12.5332 15.8846 13.4966 18.5621 13.2867C18.212 13.9825 17.7527 14.6214 17.2018 15.1741Z" fill="#FAFAFA"/>
</g>
</svg>
