<svg width="26" height="26" viewBox="0 0 26 26" fill="none" xmlns="http://www.w3.org/2000/svg">
<path d="M2.98393 15.9408L3.54401 18.0338C4.19834 20.4768 4.52659 21.6988 5.26868 22.4907C5.85438 23.1155 6.61211 23.5528 7.44618 23.7473C8.50351 23.9943 9.72551 23.6672 12.1695 23.0128C14.6113 22.3585 15.8333 22.0313 16.6253 21.2893C16.6903 21.2275 16.7553 21.1636 16.8159 21.0986C16.447 21.0651 16.0803 21.0108 15.7174 20.9361C14.9634 20.7866 14.0675 20.5461 13.008 20.2623L12.8921 20.2308L12.865 20.2243C11.7123 19.9145 10.7493 19.6567 9.98009 19.3793C9.17084 19.0868 8.43634 18.7261 7.81126 18.1411C6.95144 17.3355 6.34975 16.2931 6.08226 15.1457C5.88726 14.3126 5.94359 13.4958 6.09526 12.6497C6.24043 11.8383 6.50043 10.8654 6.81243 9.70084L7.39201 7.54068L7.41151 7.46484C5.33151 8.02493 4.23626 8.35643 3.50609 9.04001C2.88046 9.62615 2.44275 10.3847 2.24834 11.2197C2.00134 12.2759 2.32851 13.4979 2.98393 15.9408Z" fill="#F9C10A"/>
<path fill-rule="evenodd" clip-rule="evenodd" d="M22.5665 11.6092L22.0053 13.7022C21.3499 16.1451 21.0227 17.3671 20.2806 18.159C19.6951 18.7843 18.9373 19.222 18.1031 19.4168C17.9981 19.4417 17.8919 19.4601 17.7836 19.4731C16.7923 19.5955 15.5822 19.2716 13.3809 18.6823C10.938 18.0269 9.71598 17.6997 8.92406 16.9576C8.29861 16.3718 7.86092 15.6136 7.66631 14.779C7.41931 13.7217 7.74648 12.5008 8.40189 10.0579L8.96198 7.96488L9.22631 6.98446C9.71923 5.17963 10.0507 4.18621 10.6866 3.50696C11.2723 2.88209 12.0301 2.4448 12.8641 2.25029C13.9215 2.00329 15.1435 2.33046 17.5875 2.98588C20.0293 3.64021 21.2513 3.96738 22.0432 4.70838C22.6689 5.29452 23.1066 6.05307 23.301 6.88804C23.548 7.94538 23.2208 9.1663 22.5665 11.6092ZM11.9726 10.6234C12.0002 10.5203 12.0479 10.4237 12.1129 10.339C12.1779 10.2544 12.259 10.1834 12.3514 10.13C12.4439 10.0767 12.5459 10.0421 12.6517 10.0283C12.7576 10.0144 12.8651 10.0215 12.9681 10.0492L18.2006 11.4521C18.3064 11.4772 18.4061 11.5233 18.4938 11.5876C18.5814 11.6519 18.6553 11.7332 18.711 11.8265C18.7667 11.9199 18.8031 12.0235 18.818 12.1312C18.8329 12.2389 18.8261 12.3485 18.7979 12.4535C18.7697 12.5585 18.7207 12.6568 18.6538 12.7425C18.5869 12.8282 18.5035 12.8997 18.4085 12.9526C18.3135 13.0055 18.2089 13.0387 18.1008 13.0505C17.9927 13.0622 17.8833 13.0521 17.7792 13.0208L12.5467 11.619C12.3388 11.5631 12.1615 11.427 12.0539 11.2405C11.9462 11.0541 11.917 10.8314 11.9726 10.6234ZM11.1319 13.764C11.1877 13.556 11.3239 13.3787 11.5103 13.2711C11.6968 13.1634 11.9184 13.1342 12.1264 13.1898L15.2659 14.0315C15.3722 14.0561 15.4725 14.1018 15.5607 14.1659C15.649 14.23 15.7234 14.3112 15.7796 14.4047C15.8358 14.4983 15.8726 14.6021 15.8878 14.7101C15.903 14.8182 15.8962 14.9282 15.868 15.0335C15.8398 15.1389 15.7906 15.2375 15.7234 15.3235C15.6563 15.4094 15.5725 15.481 15.4771 15.5339C15.3816 15.5868 15.2765 15.6199 15.1681 15.6313C15.0596 15.6427 14.9499 15.6321 14.8456 15.6002L11.7061 14.7595C11.603 14.7319 11.5064 14.6842 11.4217 14.6192C11.3371 14.5542 11.266 14.4732 11.2127 14.3807C11.1594 14.2882 11.1248 14.1862 11.111 14.0804C11.0971 13.9746 11.1042 13.867 11.1319 13.764Z" fill="#F9C10A"/>
</svg>
