<svg width="37" height="25" viewBox="0 0 37 25" fill="none" xmlns="http://www.w3.org/2000/svg">
<g filter="url(#filter0_bdd_2918_54)">
<g clip-path="url(#clip0_2918_54)">
<g clip-path="url(#clip1_2918_54)">
<path opacity="0.4" d="M25.8252 10.3498C25.6263 10.3498 25.4355 10.2708 25.2949 10.1302C25.1542 9.9895 25.0752 9.79874 25.0752 9.59982C25.0782 8.5652 24.8759 7.54026 24.48 6.58435C24.0842 5.62843 23.5027 4.76051 22.7692 4.03082C22.6367 3.88865 22.5646 3.7006 22.568 3.5063C22.5715 3.312 22.6502 3.12661 22.7876 2.9892C22.925 2.85179 23.1104 2.77308 23.3047 2.76965C23.499 2.76622 23.687 2.83834 23.8292 2.97082C24.7024 3.83937 25.3948 4.87246 25.8661 6.01031C26.3375 7.14817 26.5785 8.36821 26.5752 9.59982C26.5747 9.79857 26.4955 9.98903 26.355 10.1296C26.2144 10.2701 26.024 10.3493 25.8252 10.3498ZM10.8252 10.3498C10.7266 10.35 10.629 10.3307 10.5379 10.293C10.4468 10.2554 10.364 10.2002 10.2942 10.1305C10.2245 10.0609 10.1692 9.97813 10.1314 9.88707C10.0937 9.79601 10.0742 9.6984 10.0742 9.59982C10.0742 7.09482 11.0492 4.73982 12.8202 2.96982C12.9632 2.84151 13.1499 2.77287 13.3419 2.77801C13.534 2.78315 13.7167 2.86168 13.8526 2.99745C13.9885 3.13322 14.0672 3.31591 14.0725 3.50794C14.0779 3.69997 14.0094 3.88673 13.8812 4.02982C13.1476 4.75963 12.566 5.62771 12.1702 6.58381C11.7744 7.53991 11.5722 8.56503 11.5752 9.59982C11.5752 9.79874 11.4962 9.9895 11.3555 10.1302C11.2149 10.2708 11.0241 10.3498 10.8252 10.3498Z" fill="#FAFAFA"/>
<path d="M25.3606 14.8715C24.8012 14.3994 24.3517 13.8107 24.0435 13.1468C23.7354 12.4828 23.576 11.7595 23.5766 11.0275V8.9375C23.5766 6.2975 21.6166 4.1135 19.0766 3.7475V2.9375C19.0766 2.73859 18.9975 2.54782 18.8569 2.40717C18.7162 2.26652 18.5255 2.1875 18.3266 2.1875C18.1276 2.1875 17.9369 2.26652 17.7962 2.40717C17.6556 2.54782 17.5766 2.73859 17.5766 2.9375V3.7475C15.0366 4.1135 13.0766 6.2975 13.0766 8.9375V11.0285C13.0766 12.5125 12.4266 13.9135 11.2846 14.8785C11.0803 15.0528 10.9344 15.2856 10.8667 15.5454C10.7989 15.8052 10.8125 16.0796 10.9056 16.3314C10.9987 16.5833 11.1669 16.8005 11.3874 16.9538C11.6078 17.1071 11.87 17.189 12.1386 17.1885H24.5136C24.7826 17.1881 25.045 17.1052 25.2654 16.9509C25.4857 16.7965 25.6534 16.5783 25.7458 16.3256C25.8382 16.073 25.8508 15.798 25.7819 15.538C25.713 15.2779 25.5659 15.0453 25.3606 14.8715Z" fill="#FAFAFA"/>
<path opacity="0.4" d="M18.3263 20.1875C18.9743 20.1867 19.6022 19.9624 20.104 19.5526C20.6059 19.1427 20.9511 18.5723 21.0813 17.9375H15.5703C15.7009 18.5723 16.0463 19.1426 16.5483 19.5524C17.0503 19.9623 17.6783 20.1865 18.3263 20.1875Z" fill="#FAFAFA"/>
</g>
<g filter="url(#filter1_d_2918_54)">
<rect x="22.3066" y="8.77344" width="8" height="8" rx="4" fill="#F5A623"/>
</g>
</g>
</g>
<defs>
<filter id="filter0_bdd_2918_54" x="-11.6934" y="-10.5547" width="60.0391" height="43.4805" filterUnits="userSpaceOnUse" color-interpolation-filters="sRGB">
<feFlood flood-opacity="0" result="BackgroundImageFix"/>
<feGaussianBlur in="BackgroundImageFix" stdDeviation="6"/>
<feComposite in2="SourceAlpha" operator="in" result="effect1_backgroundBlur_2918_54"/>
<feColorMatrix in="SourceAlpha" type="matrix" values="0 0 0 0 0 0 0 0 0 0 0 0 0 0 0 0 0 0 127 0" result="hardAlpha"/>
<feMorphology radius="1" operator="erode" in="SourceAlpha" result="effect2_dropShadow_2918_54"/>
<feOffset dy="1"/>
<feGaussianBlur stdDeviation="1"/>
<feComposite in2="hardAlpha" operator="out"/>
<feColorMatrix type="matrix" values="0 0 0 0 0 0 0 0 0 0 0 0 0 0 0 0 0 0 0.1 0"/>
<feBlend mode="normal" in2="effect1_backgroundBlur_2918_54" result="effect2_dropShadow_2918_54"/>
<feColorMatrix in="SourceAlpha" type="matrix" values="0 0 0 0 0 0 0 0 0 0 0 0 0 0 0 0 0 0 127 0" result="hardAlpha"/>
<feOffset dy="1"/>
<feGaussianBlur stdDeviation="1.5"/>
<feComposite in2="hardAlpha" operator="out"/>
<feColorMatrix type="matrix" values="0 0 0 0 0 0 0 0 0 0 0 0 0 0 0 0 0 0 0.1 0"/>
<feBlend mode="normal" in2="effect2_dropShadow_2918_54" result="effect3_dropShadow_2918_54"/>
<feBlend mode="normal" in="SourceGraphic" in2="effect3_dropShadow_2918_54" result="shape"/>
</filter>
<filter id="filter1_d_2918_54" x="20.3066" y="6.77344" width="12" height="12" filterUnits="userSpaceOnUse" color-interpolation-filters="sRGB">
<feFlood flood-opacity="0" result="BackgroundImageFix"/>
<feColorMatrix in="SourceAlpha" type="matrix" values="0 0 0 0 0 0 0 0 0 0 0 0 0 0 0 0 0 0 127 0" result="hardAlpha"/>
<feMorphology radius="2" operator="dilate" in="SourceAlpha" result="effect1_dropShadow_2918_54"/>
<feOffset/>
<feComposite in2="hardAlpha" operator="out"/>
<feColorMatrix type="matrix" values="0 0 0 0 1 0 0 0 0 1 0 0 0 0 1 0 0 0 1 0"/>
<feBlend mode="normal" in2="BackgroundImageFix" result="effect1_dropShadow_2918_54"/>
<feBlend mode="normal" in="SourceGraphic" in2="effect1_dropShadow_2918_54" result="shape"/>
</filter>
<clipPath id="clip0_2918_54">
<rect x="0.306641" y="1.44531" width="36.0393" height="19.4824" rx="6" fill="white"/>
</clipPath>
<clipPath id="clip1_2918_54">
<rect width="18" height="18" fill="white" transform="translate(9.32617 2.1875)"/>
</clipPath>
</defs>
</svg>
