<svg width="20" height="20" viewBox="0 0 20 20" fill="none" xmlns="http://www.w3.org/2000/svg">
<path d="M2.99462 7.64388C3.42998 7.64388 3.66426 7.40103 3.66426 6.95746V4.98246C3.66426 4.11174 4.13283 3.66817 4.96998 3.66817H6.99569C7.43105 3.66817 7.67355 3.42531 7.67355 2.98996C7.67355 2.56317 7.43069 2.32031 6.99569 2.32031H4.94498C3.20391 2.32031 2.31641 3.18246 2.31641 4.90674V6.95781C2.31641 7.40138 2.55926 7.64388 2.99462 7.64388ZM17.0068 7.64388C17.4503 7.64388 17.685 7.40103 17.685 6.95746V4.90674C17.685 3.18246 16.8143 2.32031 15.0564 2.32031H13.0139C12.5703 2.32031 12.3278 2.56317 12.3278 2.98996C12.3278 3.42531 12.5707 3.66817 13.0139 3.66817H15.0396C15.86 3.66817 16.3371 4.11174 16.3371 4.98246V6.95746C16.3371 7.40138 16.58 7.64388 17.0068 7.64388ZM9.64069 9.27603V6.35496C9.64069 6.15424 9.48176 5.98674 9.27248 5.98674H6.35962C6.15033 5.98674 5.99105 6.15388 5.99105 6.35496V9.27638C5.99105 9.4771 6.15033 9.63638 6.35962 9.63638H9.27248C9.48176 9.63638 9.64069 9.47674 9.64069 9.27603ZM11.0889 6.71531H13.2818V8.90817H11.0889V6.71531ZM12.646 8.27246V7.3596H11.7335V8.2721L12.646 8.27246ZM8.27641 8.27246V7.3596H7.35569V8.2721L8.27641 8.27246ZM6.71926 11.0932H8.91248V13.286H6.71962L6.71926 11.0932ZM13.9014 11.3775V10.4653H12.9889V11.3778L13.9014 11.3775ZM11.3818 11.3775V10.4653H10.4693V11.3778L11.3818 11.3775ZM8.27641 12.6417V11.7289H7.35569V12.641L8.27641 12.6417ZM12.6457 12.6417V11.7289H11.725V12.641L12.6457 12.6417ZM13.0139 17.6807H15.0568C16.8143 17.6807 17.685 16.81 17.685 15.0857V13.0432C17.685 12.5992 17.4421 12.3567 17.0068 12.3567C16.5714 12.3567 16.3371 12.5996 16.3371 13.0432V15.0182C16.3371 15.8889 15.86 16.3325 15.0396 16.3325H13.0139C12.5703 16.3325 12.3278 16.5753 12.3278 17.0107C12.3278 17.4375 12.5707 17.6807 13.0139 17.6807ZM4.94498 17.6803H6.99569C7.43105 17.6803 7.67355 17.4375 7.67355 17.0107C7.67355 16.5753 7.43069 16.3328 6.99569 16.3328H4.96998C4.13283 16.3328 3.66426 15.8889 3.66426 15.0185V13.0432C3.66426 12.5992 3.42141 12.3567 2.99462 12.3567C2.55105 12.3567 2.31641 12.5996 2.31641 13.0432V15.0853C2.31641 16.8182 3.20391 17.6803 4.94498 17.6803ZM11.3818 13.9053V12.9928H10.4693V13.9053H11.3818ZM13.9014 13.9053V12.9928H12.9889V13.9053H13.9014ZM14.0103 9.27638V6.35496C14.0103 6.15424 13.851 5.98674 13.6418 5.98674H10.7293C10.52 5.98674 10.361 6.15388 10.361 6.35496V9.27638C10.361 9.4771 10.52 9.63638 10.7289 9.63638H13.6421C13.8514 9.63638 14.0103 9.4771 14.0103 9.27638ZM6.71926 6.7146H8.91248V8.90746H6.71962L6.71926 6.7146ZM9.64069 13.6453V10.7239C9.64069 10.5232 9.48176 10.3642 9.27248 10.3642H6.35962C6.15033 10.3642 5.99105 10.5232 5.99105 10.7239V13.6453C5.99105 13.8464 6.15033 14.0135 6.35962 14.0135H9.27248C9.48176 14.0135 9.64069 13.8464 9.64069 13.6453Z" fill="#333333"/>
</svg>
