<svg width="10" height="11" viewBox="0 0 10 11" fill="none" xmlns="http://www.w3.org/2000/svg">
<path d="M9.71465 7.56623L7.52715 6.62873C7.4337 6.5889 7.32984 6.58051 7.23121 6.60482C7.13258 6.62912 7.04452 6.68481 6.98027 6.7635L6.01152 7.94709C4.49116 7.23025 3.26762 6.00671 2.55078 4.48635L3.73438 3.5176C3.81322 3.45347 3.86902 3.3654 3.89334 3.26673C3.91766 3.16805 3.90916 3.06414 3.86914 2.97072L2.93164 0.783221C2.88772 0.68252 2.81003 0.600301 2.71198 0.550741C2.61393 0.501181 2.50166 0.487387 2.39453 0.511737L0.363281 0.980487C0.259994 1.00434 0.167841 1.06249 0.101862 1.14546C0.0358838 1.22843 -2.37932e-05 1.33132 1.18285e-08 1.43732C1.18285e-08 6.44709 4.06055 10.4998 9.0625 10.4998C9.16854 10.4999 9.27147 10.464 9.35448 10.398C9.43749 10.332 9.49567 10.2399 9.51953 10.1365L9.98828 8.10529C10.0125 7.99764 9.99839 7.88492 9.94845 7.78653C9.8985 7.68814 9.81583 7.61024 9.71465 7.56623Z" fill="white"/>
</svg>
