<svg width="105" height="26" viewBox="0 0 105 26" fill="none" xmlns="http://www.w3.org/2000/svg">
<path d="M5.96875 16.75L2.40625 13.1875L3.29688 12.2969L5.96875 14.9687L11.7031 9.23438L12.5938 10.125L5.96875 16.75Z" fill="#F8F8F8"/>
<path fill-rule="evenodd" clip-rule="evenodd" d="M20 13C20 12.8674 20.0527 12.7402 20.1464 12.6464C20.2402 12.5527 20.3674 12.5 20.5 12.5H24.5C24.6326 12.5 24.7598 12.5527 24.8536 12.6464C24.9473 12.7402 25 12.8674 25 13C25 13.1326 24.9473 13.2598 24.8536 13.3536C24.7598 13.4473 24.6326 13.5 24.5 13.5H20.5C20.3674 13.5 20.2402 13.4473 20.1464 13.3536C20.0527 13.2598 20 13.1326 20 13Z" fill="#F8F8F8"/>
<path d="M35.9688 16.75L32.4062 13.1875L33.2969 12.2969L35.9688 14.9687L41.7031 9.23438L42.5938 10.125L35.9688 16.75Z" fill="#F8F8F8"/>
<path fill-rule="evenodd" clip-rule="evenodd" d="M50 13C50 12.8674 50.0527 12.7402 50.1464 12.6464C50.2402 12.5527 50.3674 12.5 50.5 12.5H54.5C54.6326 12.5 54.7598 12.5527 54.8536 12.6464C54.9473 12.7402 55 12.8674 55 13C55 13.1326 54.9473 13.2598 54.8536 13.3536C54.7598 13.4473 54.6326 13.5 54.5 13.5H50.5C50.3674 13.5 50.2402 13.4473 50.1464 13.3536C50.0527 13.2598 50 13.1326 50 13Z" fill="#F8F8F8"/>
<path d="M67.2012 17.5391C69.79 17.5391 71.8887 15.4404 71.8887 12.8516C71.8887 10.2627 69.79 8.16406 67.2012 8.16406C64.6123 8.16406 62.5137 10.2627 62.5137 12.8516C62.5137 15.4404 64.6123 17.5391 67.2012 17.5391Z" fill="#F8F8F8"/>
<path d="M67.2012 19.4141C65.9032 19.4141 64.6344 19.0292 63.5552 18.3081C62.476 17.587 61.6349 16.5621 61.1382 15.3629C60.6415 14.1638 60.5116 12.8443 60.7648 11.5713C61.018 10.2983 61.643 9.12896 62.5608 8.21118C63.4786 7.2934 64.6479 6.66838 65.9209 6.41516C67.1939 6.16195 68.5134 6.29191 69.7125 6.78861C70.9117 7.28531 71.9366 8.12644 72.6577 9.20564C73.3788 10.2848 73.7637 11.5536 73.7637 12.8516C73.7617 14.5914 73.0696 16.2595 71.8394 17.4898C70.6091 18.72 68.941 19.4121 67.2012 19.4141ZM67.2012 7.22657C66.0887 7.22657 65.0011 7.55647 64.0761 8.17455C63.1511 8.79263 62.4301 9.67114 62.0044 10.699C61.5786 11.7268 61.4672 12.8578 61.6843 13.9489C61.9013 15.0401 62.437 16.0424 63.2237 16.829C64.0104 17.6157 65.0126 18.1514 66.1038 18.3685C67.1949 18.5855 68.3259 18.4741 69.3538 18.0484C70.3816 17.6226 71.2601 16.9017 71.8782 15.9766C72.4963 15.0516 72.8262 13.9641 72.8262 12.8516C72.8244 11.3603 72.2312 9.93052 71.1767 8.87601C70.1222 7.82149 68.6925 7.2283 67.2012 7.22657Z" fill="#F8F8F8"/>
<path fill-rule="evenodd" clip-rule="evenodd" d="M80 13C80 12.8674 80.0527 12.7402 80.1464 12.6464C80.2402 12.5527 80.3674 12.5 80.5 12.5H84.5C84.6326 12.5 84.7598 12.5527 84.8536 12.6464C84.9473 12.7402 85 12.8674 85 13C85 13.1326 84.9473 13.2598 84.8536 13.3536C84.7598 13.4473 84.6326 13.5 84.5 13.5H80.5C80.3674 13.5 80.2402 13.4473 80.1464 13.3536C80.0527 13.2598 80 13.1326 80 13Z" fill="#F8F8F8"/>
<path d="M97.5 19.25C96.6354 19.25 95.8229 19.0858 95.0625 18.7575C94.3021 18.4292 93.6406 17.984 93.0781 17.4219C92.5156 16.8598 92.0704 16.1983 91.7425 15.4375C91.4146 14.6767 91.2504 13.8642 91.25 13C91.2496 12.1358 91.4138 11.3233 91.7425 10.5625C92.0713 9.80167 92.5165 9.14021 93.0781 8.57813C93.6398 8.01604 94.3013 7.57083 95.0625 7.2425C95.8238 6.91417 96.6363 6.75 97.5 6.75C98.3638 6.75 99.1763 6.91417 99.9375 7.2425C100.699 7.57083 101.36 8.01604 101.922 8.57813C102.484 9.14021 102.929 9.80167 103.258 10.5625C103.587 11.3233 103.751 12.1358 103.75 13C103.749 13.8642 103.585 14.6767 103.258 15.4375C102.93 16.1983 102.485 16.8598 101.922 17.4219C101.359 17.984 100.697 18.4294 99.9375 18.7581C99.1779 19.0869 98.3654 19.2508 97.5 19.25ZM97.5 18C98.8958 18 100.078 17.5156 101.047 16.5469C102.016 15.5781 102.5 14.3958 102.5 13C102.5 11.6042 102.016 10.4219 101.047 9.45312C100.078 8.48437 98.8958 8 97.5 8C96.1042 8 94.9219 8.48437 93.9531 9.45312C92.9844 10.4219 92.5 11.6042 92.5 13C92.5 14.3958 92.9844 15.5781 93.9531 16.5469C94.9219 17.5156 96.1042 18 97.5 18Z" fill="#F8F8F8"/>
</svg>
